<?xml version="1.0" encoding="UTF-8"?> <svg xmlns="http://www.w3.org/2000/svg" xmlns:xlink="http://www.w3.org/1999/xlink" id="Layer_1" height="512" viewBox="0 0 512 512" width="512"><linearGradient id="SVGID_1_" gradientUnits="userSpaceOnUse" x1="132.88" x2="371.937" y1="450.756" y2="36.697"><stop offset="0" stop-color="#00aae3"></stop><stop offset="1" stop-color="#58c3bd"></stop></linearGradient><path clip-rule="evenodd" d="m133.82 60.79h17.23c1.25 0 2.3 1.05 2.3 2.3v123.43c0 1.25-1.05 2.31-2.3 2.31h-17.23c-10.77 0-19.53-8.77-19.53-19.54v-88.98c0-10.76 8.76-19.52 19.53-19.52zm253.36 166.68h-255.08c-9.31 0-16.88 7.58-16.88 16.89v186.45c0 9.31 7.57 16.88 16.88 16.88h255.09c9.32 0 16.89-7.57 16.89-16.88v-186.44c-.01-9.32-7.58-16.9-16.9-16.9zm-239.22 20.48c-3.31 0-6 2.69-6 6v117.44c0 3.32 2.69 6 6 6h144.6c3.31 0 6-2.68 6-6v-117.45c0-3.31-2.69-6-6-6h-144.6zm186.56 100.08h41.44c3.31 0 6-2.68 6-6 0-3.31-2.69-6-6-6h-41.44c-3.31 0-6 2.69-6 6 0 3.32 2.69 6 6 6zm11.01 17.35c-3.32 0-6 2.69-6 6 0 3.32 2.68 6 6 6h19.42c3.31 0 6-2.68 6-6 0-3.31-2.69-6-6-6zm-20.39-58.71c-3.32 0-6 2.69-6 6 0 3.32 2.68 6 6 6h60.2c3.31 0 6-2.68 6-6 0-3.31-2.69-6-6-6zm3.38-23.36c0 3.31 2.69 6 6 6h41.44c3.31 0 6-2.69 6-6s-2.69-6-6-6h-41.44c-3.31-.01-6 2.69-6 6zm11.01-29.37c0 3.31 2.68 6 6 6h19.42c3.31 0 6-2.69 6-6s-2.69-6-6-6h-19.42c-3.32.01-6 2.7-6 6zm-114.24 156.8c0 12.57 10.22 22.79 22.79 22.79 12.56 0 22.78-10.22 22.78-22.79 0-12.56-10.22-22.79-22.78-22.79s-22.79 10.24-22.79 22.79zm-32.84 22.79c12.56 0 22.79-10.22 22.79-22.79 0-12.56-10.23-22.79-22.79-22.79-12.57 0-22.79 10.23-22.79 22.79 0 12.58 10.22 22.79 22.79 22.79zm-38.49-173.58v105.44h132.6v-105.44zm24.53 68.01 14.52.17h.07c2.65 0 4.99-1.74 5.75-4.29l6.32-21.21 8.26 47.22c.48 2.78 2.83 4.84 5.64 4.97h.27c2.7 0 5.08-1.81 5.79-4.44l8.05-29.88 4.38 5.29c1.14 1.38 2.83 2.17 4.62 2.17h19.8c3.31 0 6-2.68 6-6 0-3.31-2.69-6-6-6h-16.98l-9.98-12.06c-1.43-1.73-3.7-2.51-5.89-2.04-2.2.48-3.94 2.14-4.52 4.3l-4.02 14.94-7.98-45.62c-.48-2.74-2.78-4.79-5.56-4.96-2.79-.19-5.31 1.61-6.1 4.28l-12.31 41.26-9.99-.11c-.02 0-.04 0-.07 0-3.28 0-5.96 2.64-6 5.93-.04 3.32 2.62 6.04 5.93 6.08zm69.59 72c-5.95 0-10.79 4.84-10.79 10.79s4.84 10.79 10.79 10.79c5.94 0 10.78-4.84 10.78-10.79s-4.84-10.79-10.78-10.79zm-44.84 10.78c0-5.95-4.84-10.79-10.79-10.79s-10.79 4.84-10.79 10.79 4.84 10.79 10.79 10.79c5.95.01 10.79-4.83 10.79-10.79zm212.83-95.02v43.72h13.54c7.46 0 13.53-6.07 13.53-13.53v-2.33h24.57c11.81 0 22.55-4.83 30.32-12.61 7.78-7.78 12.61-18.51 12.61-30.32v-138.92c0-11.81-4.83-22.55-12.61-30.32-7.78-7.78-18.51-12.61-30.32-12.61l-6 .04v-21.62c0-8.3-6.76-15.06-15.07-15.06h-29.64v13.34h25.36c3.32 0 6 2.69 6 6v46.59c0 3.31-2.68 6-6 6h-25.36v13.35h29.65c8.31 0 15.07-6.76 15.07-15.06v-21.68l6 .1c8.5 0 16.23 3.48 21.84 9.09s9.09 13.34 9.09 21.84v138.93c0 8.5-3.48 16.23-9.09 21.84s-13.34 9.09-21.84 9.09h-24.57v-2.32c0-7.47-6.07-13.54-13.53-13.54h-13.55zm-326.4 43.72c-7.46 0-13.54-6.07-13.54-13.53v-2.33h-24.56c-11.81 0-22.55-4.83-30.32-12.61-7.78-7.78-12.61-18.51-12.61-30.32v-138.92c0-11.81 4.83-22.55 12.61-30.32 7.78-7.78 18.51-12.61 30.32-12.61l6 .16v-21.74c0-8.3 6.76-15.06 15.07-15.06h29.65v13.34h-25.37c-3.31 0-6 2.69-6 6v46.59c0 3.31 2.69 6 6 6h25.37v13.35h-29.65c-8.31 0-15.07-6.76-15.07-15.06v-21.64l-6 .06c-8.5 0-16.23 3.48-21.84 9.09s-9.09 13.34-9.09 21.84v138.93c0 8.5 3.48 16.23 9.09 21.84s13.34 9.09 21.84 9.09h24.56v-2.32c0-7.47 6.08-13.54 13.54-13.54h13.54v43.72h-13.54zm295.79-170.62c10.77 0 19.53-8.77 19.53-19.54v-88.97c0-10.77-8.76-19.53-19.53-19.53h-17.23c-1.25 0-2.31 1.05-2.31 2.3v123.43c0 1.25 1.06 2.31 2.31 2.31zm-124.08-8.48 44.87-44.88h-29.11c-1.49 0-2.93-.55-4.03-1.56l-7.3-6.64-10.08 28.18c-.85 2.39-3.12 3.98-5.64 3.98-.12 0-.24-.01-.35-.01-2.66-.16-4.9-2.04-5.5-4.64l-10.63-45.77-9.04 22.81c-.9 2.29-3.11 3.79-5.57 3.79-.02 0-.04 0-.05 0l-5.82-.05 44.77 44.78c.96.95 2.52.95 3.48.01zm18.08-56.88h38.69v.1l2.22-2.22c12.07-12.06 12.07-31.69 0-43.76-5.82-5.82-13.59-9.02-21.88-9.02-8.3 0-16.07 3.2-21.88 9.02l-12.73 12.72c-2.34 2.34-6.14 2.34-8.48 0l-12.73-12.73c-5.82-5.82-13.59-9.02-21.88-9.02-8.3 0-16.07 3.2-21.88 9.02-5.82 5.82-9.02 13.59-9.02 21.88 0 8.3 3.2 16.07 9.02 21.88l2.12 2.12 13.9.11 14.6-36.85c.96-2.44 3.4-3.97 6.02-3.77 2.62.19 4.81 2.07 5.4 4.62l10.36 44.6 6.23-17.42c.67-1.89 2.25-3.32 4.19-3.8 1.95-.49 4.01.03 5.5 1.38z" fill="url(#SVGID_1_)" fill-rule="evenodd"></path></svg> 